<?xml version="1.0" encoding="UTF-8"?>
<!DOCTYPE svg PUBLIC "-//W3C//DTD SVG 1.1//EN" "http://www.w3.org/Graphics/SVG/1.1/DTD/svg11.dtd">
<svg version="1.1" xmlns="http://www.w3.org/2000/svg" xmlns:xlink="http://www.w3.org/1999/xlink" x="0" y="0" width="32" height="32" viewBox="0, 0, 32, 32">
  <g id="g3174">
    <path d="M14.902,31.349 L14.902,18.937 L12.651,18.937 C12.375,18.937 12.151,18.713 12.151,18.437 L12.151,14.721 C12.151,14.391 12.401,14.227 12.651,14.226 L14.903,14.224 L14.903,12.224 C14.903,11.169 14.915,9.273 15.903,8.064 C16.901,6.832 18.282,6.005 20.563,6.005 C24.078,6.005 25.592,6.474 25.647,6.491 C25.886,6.567 26.032,6.81 25.988,7.057 L25.3,10.863 C25.247,11.151 24.96,11.333 24.678,11.257 C24.682,11.257 23.588,10.964 22.59,10.964 C21.982,10.964 21.059,11.095 21.059,11.82 L21.059,14.22 L24.948,14.22 C25.24,14.22 25.47,14.471 25.446,14.762 L25.142,18.478 C25.12,18.738 24.904,18.937 24.644,18.937 L21.059,18.937 L21.059,31.349 C21.059,31.625 20.834,31.849 20.559,31.849 L15.402,31.849 C15.126,31.849 14.902,31.625 14.902,31.349 z M20.059,30.849 L20.059,18.437 C20.059,18.162 20.283,17.937 20.559,17.937 L24.183,17.937 L24.406,15.221 L20.559,15.221 C20.283,15.221 20.059,14.997 20.059,14.721 L20.059,11.82 C20.059,11.123 20.412,10.627 20.924,10.333 C21.406,10.059 22.012,9.964 22.59,9.964 C23.16,9.964 23.746,10.047 24.19,10.128 L24.407,10.171 L24.918,7.345 L24.758,7.314 C24.058,7.184 22.703,7.005 20.563,7.005 C18.585,7.005 17.489,7.694 16.678,8.694 C15.954,9.581 15.903,11.085 15.903,12.224 L15.903,14.725 C15.903,15.001 15.678,15.225 15.403,15.225 L13.151,15.225 L13.151,17.937 L15.402,17.937 C15.677,17.937 15.902,18.162 15.902,18.437 L15.902,30.849 L20.059,30.849 z" fill="#FFFFFF" id="path3176"/>
    <path d="M0,29.077 L0,2.923 C0,1.311 1.309,-0 2.923,-0 L29.077,-0 C30.689,-0 32,1.311 32,2.923 L32,29.077 C32,30.691 30.689,32 29.077,32 L2.923,32 C1.309,32 0,30.691 0,29.077 z M31,29.077 L31,2.923 C31,1.864 30.136,1 29.077,1 L2.923,1 C1.863,1 1,1.864 1,2.923 L1,29.077 C1,30.137 1.863,31 2.923,31 L29.077,31 C30.136,31 31,30.137 31,29.077 z" fill="#FFFFFF" id="path3178"/>
  </g>
</svg>
