<?xml version="1.0" encoding="UTF-8"?>
<!DOCTYPE svg PUBLIC "-//W3C//DTD SVG 1.1//EN" "http://www.w3.org/Graphics/SVG/1.1/DTD/svg11.dtd">
<svg version="1.1" xmlns="http://www.w3.org/2000/svg" xmlns:xlink="http://www.w3.org/1999/xlink" x="0" y="0" width="32" height="32" viewBox="0, 0, 32, 32">
  <g id="g3356">
    <path d="M0,29.077 L0,2.923 C0,1.311 1.309,-0 2.923,-0 L29.077,-0 C30.689,-0 32,1.311 32,2.923 L32,29.077 C32,30.691 30.689,32 29.077,32 L2.923,32 C1.309,32 0,30.691 0,29.077 z M31,29.077 L31,2.923 C31,1.864 30.136,1 29.077,1 L2.923,1 C1.863,1 1,1.864 1,2.923 L1,29.077 C1,30.137 1.863,31 2.923,31 L29.077,31 C30.136,31 31,30.137 31,29.077 z" fill="#FFFFFF" id="path3358"/>
    <path d="M5.001,23.148 L5.001,8.849 C5.001,6.722 6.728,4.994 8.856,4.994 L23.158,4.994 C25.284,4.994 27.012,6.722 27.012,8.849 L27.012,23.148 C27.012,25.276 25.284,27.003 23.158,27.003 L8.856,27.003 C6.728,27.003 5.001,25.276 5.001,23.148 z M26.012,23.148 L26.012,8.849 C26.012,7.276 24.731,5.994 23.158,5.994 L8.856,5.994 C8.793,5.994 8.73,5.997 8.669,6.001 L9.001,6.001 L9.001,12 L8,12 L7.998,6.126 C6.841,6.49 6.001,7.574 6.001,8.849 L6.001,12.002 L25.999,12.002 L25.999,13 L6.001,13 L6.001,23.148 C6.001,24.723 7.281,26.003 8.856,26.003 L23.158,26.003 C24.731,26.003 26.012,24.723 26.012,23.148 z M10.997,19.004 C10.997,16.243 13.239,14.002 16.001,14.002 C18.761,14.002 21.004,16.243 21.004,19.004 C21.004,21.765 18.761,24.006 16.001,24.006 C13.239,24.006 10.997,21.765 10.997,19.004 z M20.004,19.004 C20.004,16.797 18.21,15.002 16.001,15.002 C13.79,15.002 11.997,16.797 11.997,19.004 C11.997,21.212 13.79,23.006 16.001,23.006 C18.21,23.006 20.004,21.212 20.004,19.004 z M13.009,18.998 C13.009,17.348 14.349,16.005 16.001,16.005 C17.651,16.005 18.993,17.348 18.993,18.998 C18.993,20.651 17.651,21.992 16.001,21.992 C14.349,21.992 13.009,20.651 13.009,18.998 z M17.993,18.998 C17.993,17.898 17.098,17.005 16.001,17.005 C14.902,17.005 14.009,17.898 14.009,18.998 C14.009,20.1 14.902,20.992 16.001,20.992 C17.098,20.992 17.993,20.1 17.993,18.998 z M10.001,12 L10.001,6.001 L11.002,6.001 L11.002,12 L10.001,12 z M12,12 L12,6.001 L13.001,6.001 L13.001,12 L12,12 z M20.006,9.002 C20.006,7.901 20.894,6.996 21.998,6.996 C23.1,6.996 23.99,7.901 23.99,9.002 C23.99,10.105 23.1,11.009 21.998,11.009 C20.894,11.009 20.006,10.105 20.006,9.002 z M22.99,9.002 C22.99,8.444 22.539,7.996 21.998,7.996 C21.455,7.996 21.006,8.444 21.006,9.002 C21.006,9.563 21.455,10.009 21.998,10.009 C22.539,10.009 22.99,9.563 22.99,9.002 z" fill="#FFFFFF" id="path3360"/>
  </g>
</svg>
