<?xml version="1.0" encoding="UTF-8"?>
<!DOCTYPE svg PUBLIC "-//W3C//DTD SVG 1.1//EN" "http://www.w3.org/Graphics/SVG/1.1/DTD/svg11.dtd">
<svg version="1.1" xmlns="http://www.w3.org/2000/svg" xmlns:xlink="http://www.w3.org/1999/xlink" x="0" y="0" width="161.571" height="87" viewBox="0, 0, 161.571, 87">
  <g id="Layer_1">
    <path d="M5.467,5.561 L8.617,5.561 Q9.304,5.561 9.773,5.792 Q10.242,6.023 10.529,6.398 Q10.817,6.773 10.942,7.254 Q11.067,7.736 11.067,8.236 Q11.067,8.936 10.861,9.442 Q10.654,9.948 10.286,10.273 Q9.917,10.598 9.392,10.761 Q8.867,10.923 8.229,10.923 L7.267,10.923 L7.267,14.486 L5.467,14.486 z M8.067,9.598 Q8.604,9.598 8.936,9.273 Q9.267,8.948 9.267,8.261 Q9.267,7.586 8.979,7.236 Q8.692,6.886 8.017,6.886 L7.267,6.886 L7.267,9.598 z M14.804,13.336 Q14.404,13.336 14.161,13.154 Q13.917,12.973 13.786,12.579 Q13.654,12.186 13.611,11.554 Q13.567,10.923 13.567,10.023 Q13.567,9.123 13.611,8.498 Q13.654,7.873 13.786,7.473 Q13.917,7.073 14.161,6.892 Q14.404,6.711 14.804,6.711 Q15.204,6.711 15.448,6.892 Q15.692,7.073 15.823,7.473 Q15.954,7.873 15.998,8.498 Q16.042,9.123 16.042,10.023 Q16.042,10.923 15.998,11.554 Q15.954,12.186 15.823,12.579 Q15.692,12.973 15.448,13.154 Q15.204,13.336 14.804,13.336 z M14.804,14.623 Q15.817,14.623 16.417,14.292 Q17.017,13.961 17.336,13.354 Q17.654,12.748 17.748,11.904 Q17.842,11.061 17.842,10.023 Q17.842,9.011 17.748,8.154 Q17.654,7.298 17.336,6.686 Q17.017,6.073 16.417,5.729 Q15.817,5.386 14.804,5.386 Q13.792,5.386 13.192,5.729 Q12.592,6.073 12.273,6.686 Q11.954,7.298 11.861,8.154 Q11.767,9.011 11.767,10.023 Q11.767,11.061 11.861,11.904 Q11.954,12.748 12.273,13.354 Q12.592,13.961 13.192,14.292 Q13.792,14.623 14.804,14.623 z M21.754,14.623 Q22.642,14.623 23.198,14.342 Q23.754,14.061 24.061,13.579 Q24.367,13.098 24.479,12.454 Q24.592,11.811 24.592,11.073 L22.792,11.073 Q22.792,11.798 22.704,12.242 Q22.617,12.686 22.467,12.929 Q22.317,13.173 22.111,13.254 Q21.904,13.336 21.667,13.336 Q21.379,13.336 21.161,13.217 Q20.942,13.098 20.798,12.754 Q20.654,12.411 20.586,11.786 Q20.517,11.161 20.517,10.148 Q20.517,9.198 20.567,8.542 Q20.617,7.886 20.742,7.479 Q20.867,7.073 21.086,6.892 Q21.304,6.711 21.642,6.711 Q22.254,6.711 22.486,7.154 Q22.717,7.598 22.717,8.573 L24.517,8.573 Q24.517,8.086 24.448,7.529 Q24.379,6.973 24.104,6.492 Q23.829,6.011 23.273,5.698 Q22.717,5.386 21.754,5.386 Q20.742,5.386 20.142,5.729 Q19.542,6.073 19.223,6.686 Q18.904,7.298 18.811,8.154 Q18.717,9.011 18.717,10.023 Q18.717,11.061 18.811,11.904 Q18.904,12.748 19.223,13.354 Q19.542,13.961 20.142,14.292 Q20.742,14.623 21.754,14.623 z M28.467,14.623 Q29.354,14.623 29.911,14.342 Q30.467,14.061 30.773,13.579 Q31.079,13.098 31.192,12.454 Q31.304,11.811 31.304,11.073 L29.504,11.073 Q29.504,11.798 29.417,12.242 Q29.329,12.686 29.179,12.929 Q29.029,13.173 28.823,13.254 Q28.617,13.336 28.379,13.336 Q28.092,13.336 27.873,13.217 Q27.654,13.098 27.511,12.754 Q27.367,12.411 27.298,11.786 Q27.229,11.161 27.229,10.148 Q27.229,9.198 27.279,8.542 Q27.329,7.886 27.454,7.479 Q27.579,7.073 27.798,6.892 Q28.017,6.711 28.354,6.711 Q28.967,6.711 29.198,7.154 Q29.429,7.598 29.429,8.573 L31.229,8.573 Q31.229,8.086 31.161,7.529 Q31.092,6.973 30.817,6.492 Q30.542,6.011 29.986,5.698 Q29.429,5.386 28.467,5.386 Q27.454,5.386 26.854,5.729 Q26.254,6.073 25.936,6.686 Q25.617,7.298 25.523,8.154 Q25.429,9.011 25.429,10.023 Q25.429,11.061 25.523,11.904 Q25.617,12.748 25.936,13.354 Q26.254,13.961 26.854,14.292 Q27.454,14.623 28.467,14.623 z M32.329,14.486 L34.267,14.486 L36.454,8.773 L36.454,14.486 L38.167,14.486 L38.167,5.561 L36.229,5.561 L34.042,11.286 L34.042,5.561 L32.329,5.561 z M42.429,4.998 Q41.617,4.998 41.161,4.536 Q40.704,4.073 40.679,3.248 L41.504,3.248 Q41.554,3.623 41.804,3.836 Q42.054,4.048 42.429,4.048 Q42.804,4.048 43.054,3.836 Q43.304,3.623 43.354,3.248 L44.179,3.248 Q44.154,4.073 43.698,4.536 Q43.242,4.998 42.429,4.998 z M39.417,5.561 L41.129,5.561 L41.129,11.286 L43.317,5.561 L45.254,5.561 L45.254,14.486 L43.542,14.486 L43.542,8.773 L41.354,14.486 L39.417,14.486 z M49.354,14.623 Q50.242,14.623 50.798,14.342 Q51.354,14.061 51.661,13.579 Q51.967,13.098 52.079,12.454 Q52.192,11.811 52.192,11.073 L50.392,11.073 Q50.392,11.798 50.304,12.242 Q50.217,12.686 50.067,12.929 Q49.917,13.173 49.711,13.254 Q49.504,13.336 49.267,13.336 Q48.979,13.336 48.761,13.217 Q48.542,13.098 48.398,12.754 Q48.254,12.411 48.186,11.786 Q48.117,11.161 48.117,10.148 Q48.117,9.198 48.167,8.542 Q48.217,7.886 48.342,7.479 Q48.467,7.073 48.686,6.892 Q48.904,6.711 49.242,6.711 Q49.854,6.711 50.086,7.154 Q50.317,7.598 50.317,8.573 L52.117,8.573 Q52.117,8.086 52.048,7.529 Q51.979,6.973 51.704,6.492 Q51.429,6.011 50.873,5.698 Q50.317,5.386 49.354,5.386 Q48.342,5.386 47.742,5.729 Q47.142,6.073 46.823,6.686 Q46.504,7.298 46.411,8.154 Q46.317,9.011 46.317,10.023 Q46.317,11.061 46.411,11.904 Q46.504,12.748 46.823,13.354 Q47.142,13.961 47.742,14.292 Q48.342,14.623 49.354,14.623 z M53.217,14.486 L55.017,14.486 L55.017,11.836 L55.679,10.823 L57.517,14.486 L59.542,14.486 L56.842,9.386 L59.267,5.561 L57.317,5.561 L55.042,9.136 L55.017,9.136 L55.017,5.561 L53.217,5.561 z M62.529,13.336 Q62.129,13.336 61.886,13.154 Q61.642,12.973 61.511,12.579 Q61.379,12.186 61.336,11.554 Q61.292,10.923 61.292,10.023 Q61.292,9.123 61.336,8.498 Q61.379,7.873 61.511,7.473 Q61.642,7.073 61.886,6.892 Q62.129,6.711 62.529,6.711 Q62.929,6.711 63.173,6.892 Q63.417,7.073 63.548,7.473 Q63.679,7.873 63.723,8.498 Q63.767,9.123 63.767,10.023 Q63.767,10.923 63.723,11.554 Q63.679,12.186 63.548,12.579 Q63.417,12.973 63.173,13.154 Q62.929,13.336 62.529,13.336 z M62.529,14.623 Q63.542,14.623 64.142,14.292 Q64.742,13.961 65.061,13.354 Q65.379,12.748 65.473,11.904 Q65.567,11.061 65.567,10.023 Q65.567,9.011 65.473,8.154 Q65.379,7.298 65.061,6.686 Q64.742,6.073 64.142,5.729 Q63.542,5.386 62.529,5.386 Q61.517,5.386 60.917,5.729 Q60.317,6.073 59.998,6.686 Q59.679,7.298 59.586,8.154 Q59.492,9.011 59.492,10.023 Q59.492,11.061 59.586,11.904 Q59.679,12.748 59.998,13.354 Q60.317,13.961 60.917,14.292 Q61.517,14.623 62.529,14.623 z M66.629,14.486 L71.742,14.486 L71.742,13.011 L68.429,13.011 L68.429,10.611 L71.429,10.611 L71.429,9.136 L68.429,9.136 L68.429,7.036 L71.617,7.036 L71.617,5.561 L66.629,5.561 z M75.642,14.486 L77.579,14.486 L79.767,8.773 L79.767,14.486 L81.479,14.486 L81.479,5.561 L79.542,5.561 L77.354,11.286 L77.354,5.561 L75.642,5.561 z M82.729,14.486 L84.529,14.486 L84.529,10.523 L86.629,10.523 L86.629,14.486 L88.429,14.486 L88.429,5.561 L86.629,5.561 L86.629,8.973 L84.529,8.973 L84.529,5.561 L82.729,5.561 z M89.679,14.486 L91.617,14.486 L93.804,8.773 L93.804,14.486 L95.517,14.486 L95.517,5.561 L93.579,5.561 L91.392,11.286 L91.392,5.561 L89.679,5.561 z M101.642,16.248 L103.304,16.248 L103.304,13.011 L102.467,13.011 L102.467,5.561 L100.667,5.561 L100.667,13.011 L98.567,13.011 L98.567,5.561 L96.767,5.561 L96.767,14.486 L101.642,14.486 z M104.054,14.486 L105.992,14.486 L108.179,8.773 L108.179,14.486 L109.892,14.486 L109.892,5.561 L107.954,5.561 L105.767,11.286 L105.767,5.561 L104.054,5.561 z M113.117,11.123 L113.979,7.111 L114.004,7.111 L114.867,11.123 z M110.517,14.486 L112.392,14.486 L112.804,12.598 L115.179,12.598 L115.592,14.486 L117.467,14.486 L115.104,5.561 L112.879,5.561 z M118.879,14.486 L120.679,14.486 L120.679,7.036 L122.629,7.036 L122.629,5.561 L116.929,5.561 L116.929,7.036 L118.879,7.036 z M123.404,14.486 L125.342,14.486 L127.529,8.773 L127.529,14.486 L129.242,14.486 L129.242,5.561 L127.304,5.561 L125.117,11.286 L125.117,5.561 L123.404,5.561 z M132.292,9.223 L132.292,6.886 L132.942,6.886 Q133.617,6.886 133.929,7.148 Q134.242,7.411 134.242,8.048 Q134.242,8.686 133.898,8.954 Q133.554,9.223 132.804,9.223 z M132.292,13.161 L132.292,10.473 L133.067,10.473 Q133.367,10.473 133.617,10.536 Q133.867,10.598 134.048,10.754 Q134.229,10.911 134.336,11.167 Q134.442,11.423 134.442,11.811 Q134.442,12.586 134.042,12.873 Q133.642,13.161 132.992,13.161 z M130.492,14.486 L133.529,14.486 Q134.317,14.486 134.848,14.273 Q135.379,14.061 135.711,13.704 Q136.042,13.348 136.179,12.873 Q136.317,12.398 136.317,11.873 Q136.317,10.973 135.879,10.436 Q135.442,9.898 134.692,9.798 L134.692,9.773 Q135.367,9.586 135.704,9.067 Q136.042,8.548 136.042,7.823 Q136.042,7.186 135.854,6.748 Q135.667,6.311 135.329,6.048 Q134.992,5.786 134.523,5.673 Q134.054,5.561 133.504,5.561 L130.492,5.561 z M137.442,14.486 L139.242,14.486 L139.242,10.523 L141.342,10.523 L141.342,14.486 L143.142,14.486 L143.142,5.561 L141.342,5.561 L141.342,8.973 L139.242,8.973 L139.242,5.561 L137.442,5.561 z M147.242,13.336 Q146.842,13.336 146.598,13.154 Q146.354,12.973 146.223,12.579 Q146.092,12.186 146.048,11.554 Q146.004,10.923 146.004,10.023 Q146.004,9.123 146.048,8.498 Q146.092,7.873 146.223,7.473 Q146.354,7.073 146.598,6.892 Q146.842,6.711 147.242,6.711 Q147.642,6.711 147.886,6.892 Q148.129,7.073 148.261,7.473 Q148.392,7.873 148.436,8.498 Q148.479,9.123 148.479,10.023 Q148.479,10.923 148.436,11.554 Q148.392,12.186 148.261,12.579 Q148.129,12.973 147.886,13.154 Q147.642,13.336 147.242,13.336 z M147.242,14.623 Q148.254,14.623 148.854,14.292 Q149.454,13.961 149.773,13.354 Q150.092,12.748 150.186,11.904 Q150.279,11.061 150.279,10.023 Q150.279,9.011 150.186,8.154 Q150.092,7.298 149.773,6.686 Q149.454,6.073 148.854,5.729 Q148.254,5.386 147.242,5.386 Q146.229,5.386 145.629,5.729 Q145.029,6.073 144.711,6.686 Q144.392,7.298 144.298,8.154 Q144.204,9.011 144.204,10.023 Q144.204,11.061 144.298,11.904 Q144.392,12.748 144.711,13.354 Q145.029,13.961 145.629,14.292 Q146.229,14.623 147.242,14.623 z M151.342,14.486 L156.454,14.486 L156.454,13.011 L153.142,13.011 L153.142,10.611 L156.142,10.611 L156.142,9.136 L153.142,9.136 L153.142,7.036 L156.329,7.036 L156.329,5.561 L151.342,5.561 z" fill="#FFFFFF"/>
    <path d="M14.617,20.226 L17.292,20.226 L18.567,26.526 L18.592,26.526 L19.879,20.226 L22.542,20.226 L22.542,29.151 L20.892,29.151 L20.892,22.026 L20.867,22.026 L19.279,29.151 L17.879,29.151 L16.292,22.026 L16.267,22.026 L16.267,29.151 L14.617,29.151 z M26.679,28.001 Q26.279,28.001 26.036,27.82 Q25.792,27.639 25.661,27.245 Q25.529,26.851 25.486,26.22 Q25.442,25.589 25.442,24.689 Q25.442,23.789 25.486,23.164 Q25.529,22.539 25.661,22.139 Q25.792,21.739 26.036,21.558 Q26.279,21.376 26.679,21.376 Q27.079,21.376 27.323,21.558 Q27.567,21.739 27.698,22.139 Q27.829,22.539 27.873,23.164 Q27.917,23.789 27.917,24.689 Q27.917,25.589 27.873,26.22 Q27.829,26.851 27.698,27.245 Q27.567,27.639 27.323,27.82 Q27.079,28.001 26.679,28.001 z M26.679,29.289 Q27.692,29.289 28.292,28.958 Q28.892,28.626 29.211,28.02 Q29.529,27.414 29.623,26.57 Q29.717,25.726 29.717,24.689 Q29.717,23.676 29.623,22.82 Q29.529,21.964 29.211,21.351 Q28.892,20.739 28.292,20.395 Q27.692,20.051 26.679,20.051 Q25.667,20.051 25.067,20.395 Q24.467,20.739 24.148,21.351 Q23.829,21.964 23.736,22.82 Q23.642,23.676 23.642,24.689 Q23.642,25.726 23.736,26.57 Q23.829,27.414 24.148,28.02 Q24.467,28.626 25.067,28.958 Q25.667,29.289 26.679,29.289 z M30.679,29.226 Q31.179,29.226 31.561,29.108 Q31.942,28.989 32.217,28.683 Q32.492,28.376 32.673,27.839 Q32.854,27.301 32.954,26.464 Q33.054,25.626 33.098,24.451 Q33.142,23.276 33.142,21.701 L34.729,21.701 L34.729,29.151 L36.529,29.151 L36.529,20.226 L31.442,20.226 Q31.442,22.076 31.404,23.345 Q31.367,24.614 31.298,25.439 Q31.229,26.264 31.123,26.714 Q31.017,27.164 30.873,27.37 Q30.729,27.576 30.548,27.608 Q30.367,27.639 30.154,27.639 Q30.129,27.639 30.048,27.633 Q29.967,27.626 29.904,27.614 L29.904,29.151 Q30.017,29.176 30.261,29.201 Q30.504,29.226 30.679,29.226 z M40.629,28.001 Q40.229,28.001 39.986,27.82 Q39.742,27.639 39.611,27.245 Q39.479,26.851 39.436,26.22 Q39.392,25.589 39.392,24.689 Q39.392,23.789 39.436,23.164 Q39.479,22.539 39.611,22.139 Q39.742,21.739 39.986,21.558 Q40.229,21.376 40.629,21.376 Q41.029,21.376 41.273,21.558 Q41.517,21.739 41.648,22.139 Q41.779,22.539 41.823,23.164 Q41.867,23.789 41.867,24.689 Q41.867,25.589 41.823,26.22 Q41.779,26.851 41.648,27.245 Q41.517,27.639 41.273,27.82 Q41.029,28.001 40.629,28.001 z M40.629,29.289 Q41.642,29.289 42.242,28.958 Q42.842,28.626 43.161,28.02 Q43.479,27.414 43.573,26.57 Q43.667,25.726 43.667,24.689 Q43.667,23.676 43.573,22.82 Q43.479,21.964 43.161,21.351 Q42.842,20.739 42.242,20.395 Q41.642,20.051 40.629,20.051 Q39.617,20.051 39.017,20.395 Q38.417,20.739 38.098,21.351 Q37.779,21.964 37.686,22.82 Q37.592,23.676 37.592,24.689 Q37.592,25.726 37.686,26.57 Q37.779,27.414 38.098,28.02 Q38.417,28.626 39.017,28.958 Q39.617,29.289 40.629,29.289 z M46.629,27.676 Q46.829,27.214 46.961,26.645 Q47.092,26.076 47.167,25.476 Q47.242,24.876 47.273,24.276 Q47.304,23.676 47.304,23.151 L47.304,21.701 L48.992,21.701 L48.992,27.676 z M43.979,30.914 L45.642,30.914 L45.642,29.151 L49.929,29.151 L49.929,30.914 L51.592,30.914 L51.592,27.676 L50.754,27.676 L50.754,20.226 L45.592,20.226 L45.592,22.401 Q45.592,23.189 45.573,23.87 Q45.554,24.551 45.473,25.189 Q45.392,25.826 45.211,26.433 Q45.029,27.039 44.692,27.676 L43.979,27.676 z M52.342,29.151 L57.454,29.151 L57.454,27.676 L54.142,27.676 L54.142,25.276 L57.142,25.276 L57.142,23.801 L54.142,23.801 L54.142,21.701 L57.329,21.701 L57.329,20.226 L52.342,20.226 z M57.542,29.151 L59.492,29.151 L61.142,25.564 L61.817,26.676 L61.817,29.151 L63.554,29.151 L63.554,26.676 L64.229,25.564 L65.879,29.151 L67.829,29.151 L65.292,24.001 L67.529,20.226 L65.667,20.226 L63.554,23.889 L63.554,20.226 L61.817,20.226 L61.817,23.889 L59.704,20.226 L57.842,20.226 L60.079,24.001 z M68.267,29.151 L70.067,29.151 L70.067,25.189 L72.167,25.189 L72.167,29.151 L73.967,29.151 L73.967,20.226 L72.167,20.226 L72.167,23.639 L70.067,23.639 L70.067,20.226 L68.267,20.226 z M78.067,28.001 Q77.667,28.001 77.423,27.82 Q77.179,27.639 77.048,27.245 Q76.917,26.851 76.873,26.22 Q76.829,25.589 76.829,24.689 Q76.829,23.789 76.873,23.164 Q76.917,22.539 77.048,22.139 Q77.179,21.739 77.423,21.558 Q77.667,21.376 78.067,21.376 Q78.467,21.376 78.711,21.558 Q78.954,21.739 79.086,22.139 Q79.217,22.539 79.261,23.164 Q79.304,23.789 79.304,24.689 Q79.304,25.589 79.261,26.22 Q79.217,26.851 79.086,27.245 Q78.954,27.639 78.711,27.82 Q78.467,28.001 78.067,28.001 z M78.067,29.289 Q79.079,29.289 79.679,28.958 Q80.279,28.626 80.598,28.02 Q80.917,27.414 81.011,26.57 Q81.104,25.726 81.104,24.689 Q81.104,23.676 81.011,22.82 Q80.917,21.964 80.598,21.351 Q80.279,20.739 79.679,20.395 Q79.079,20.051 78.067,20.051 Q77.054,20.051 76.454,20.395 Q75.854,20.739 75.536,21.351 Q75.217,21.964 75.123,22.82 Q75.029,23.676 75.029,24.689 Q75.029,25.726 75.123,26.57 Q75.217,27.414 75.536,28.02 Q75.854,28.626 76.454,28.958 Q77.054,29.289 78.067,29.289 z M82.167,29.151 L87.279,29.151 L87.279,27.676 L83.967,27.676 L83.967,25.276 L86.967,25.276 L86.967,23.801 L83.967,23.801 L83.967,21.701 L87.154,21.701 L87.154,20.226 L82.167,20.226 z M94.029,28.001 Q93.629,28.001 93.386,27.82 Q93.142,27.639 93.011,27.245 Q92.879,26.851 92.836,26.22 Q92.792,25.589 92.792,24.689 Q92.792,23.789 92.836,23.164 Q92.879,22.539 93.011,22.139 Q93.142,21.739 93.386,21.558 Q93.629,21.376 94.029,21.376 Q94.429,21.376 94.673,21.558 Q94.917,21.739 95.048,22.139 Q95.179,22.539 95.223,23.164 Q95.267,23.789 95.267,24.689 Q95.267,25.589 95.223,26.22 Q95.179,26.851 95.048,27.245 Q94.917,27.639 94.673,27.82 Q94.429,28.001 94.029,28.001 z M94.029,29.289 Q95.042,29.289 95.642,28.958 Q96.242,28.626 96.561,28.02 Q96.879,27.414 96.973,26.57 Q97.067,25.726 97.067,24.689 Q97.067,23.676 96.973,22.82 Q96.879,21.964 96.561,21.351 Q96.242,20.739 95.642,20.395 Q95.042,20.051 94.029,20.051 Q93.017,20.051 92.417,20.395 Q91.817,20.739 91.498,21.351 Q91.179,21.964 91.086,22.82 Q90.992,23.676 90.992,24.689 Q90.992,25.726 91.086,26.57 Q91.179,27.414 91.498,28.02 Q91.817,28.626 92.417,28.958 Q93.017,29.289 94.029,29.289 z M99.929,27.776 L99.929,25.039 L100.617,25.039 Q101.329,25.039 101.686,25.308 Q102.042,25.576 102.042,26.339 Q102.042,26.776 101.954,27.051 Q101.867,27.326 101.686,27.489 Q101.504,27.651 101.229,27.714 Q100.954,27.776 100.567,27.776 z M98.129,29.151 L100.892,29.151 Q101.604,29.151 102.154,29.001 Q102.704,28.851 103.092,28.514 Q103.479,28.176 103.679,27.645 Q103.879,27.114 103.879,26.351 Q103.879,25.601 103.686,25.083 Q103.492,24.564 103.129,24.251 Q102.767,23.939 102.236,23.801 Q101.704,23.664 101.029,23.664 L99.929,23.664 L99.929,21.701 L103.342,21.701 L103.342,20.226 L98.129,20.226 z M113.329,30.914 L114.992,30.914 L114.992,27.676 L114.154,27.676 L114.154,20.226 L112.354,20.226 L112.354,27.676 L110.479,27.676 L110.479,20.226 L108.679,20.226 L108.679,27.676 L106.804,27.676 L106.804,20.226 L105.004,20.226 L105.004,29.151 L113.329,29.151 z M115.742,29.151 L120.854,29.151 L120.854,27.676 L117.542,27.676 L117.542,25.276 L120.542,25.276 L120.542,23.801 L117.542,23.801 L117.542,21.701 L120.729,21.701 L120.729,20.226 L115.742,20.226 z M124.604,29.289 Q125.492,29.289 126.048,29.008 Q126.604,28.726 126.911,28.245 Q127.217,27.764 127.329,27.12 Q127.442,26.476 127.442,25.739 L125.642,25.739 Q125.642,26.464 125.554,26.908 Q125.467,27.351 125.317,27.595 Q125.167,27.839 124.961,27.92 Q124.754,28.001 124.517,28.001 Q124.229,28.001 124.011,27.883 Q123.792,27.764 123.648,27.42 Q123.504,27.076 123.436,26.451 Q123.367,25.826 123.367,24.814 Q123.367,23.864 123.417,23.208 Q123.467,22.551 123.592,22.145 Q123.717,21.739 123.936,21.558 Q124.154,21.376 124.492,21.376 Q125.104,21.376 125.336,21.82 Q125.567,22.264 125.567,23.239 L127.367,23.239 Q127.367,22.751 127.298,22.195 Q127.229,21.639 126.954,21.158 Q126.679,20.676 126.123,20.364 Q125.567,20.051 124.604,20.051 Q123.592,20.051 122.992,20.395 Q122.392,20.739 122.073,21.351 Q121.754,21.964 121.661,22.82 Q121.567,23.676 121.567,24.689 Q121.567,25.726 121.661,26.57 Q121.754,27.414 122.073,28.02 Q122.392,28.626 122.992,28.958 Q123.592,29.289 124.604,29.289 z M129.817,29.151 L131.617,29.151 L131.617,21.701 L133.567,21.701 L133.567,20.226 L127.867,20.226 L127.867,21.701 L129.817,21.701 z M136.142,23.889 L136.142,21.551 L136.792,21.551 Q137.467,21.551 137.779,21.814 Q138.092,22.076 138.092,22.714 Q138.092,23.351 137.748,23.62 Q137.404,23.889 136.654,23.889 z M136.142,27.826 L136.142,25.139 L136.917,25.139 Q137.217,25.139 137.467,25.201 Q137.717,25.264 137.898,25.42 Q138.079,25.576 138.186,25.833 Q138.292,26.089 138.292,26.476 Q138.292,27.251 137.892,27.539 Q137.492,27.826 136.842,27.826 z M134.342,29.151 L137.379,29.151 Q138.167,29.151 138.698,28.939 Q139.229,28.726 139.561,28.37 Q139.892,28.014 140.029,27.539 Q140.167,27.064 140.167,26.539 Q140.167,25.639 139.729,25.101 Q139.292,24.564 138.542,24.464 L138.542,24.439 Q139.217,24.251 139.554,23.733 Q139.892,23.214 139.892,22.489 Q139.892,21.851 139.704,21.414 Q139.517,20.976 139.179,20.714 Q138.842,20.451 138.373,20.339 Q137.904,20.226 137.354,20.226 L134.342,20.226 z M144.142,28.001 Q143.742,28.001 143.498,27.82 Q143.254,27.639 143.123,27.245 Q142.992,26.851 142.948,26.22 Q142.904,25.589 142.904,24.689 Q142.904,23.789 142.948,23.164 Q142.992,22.539 143.123,22.139 Q143.254,21.739 143.498,21.558 Q143.742,21.376 144.142,21.376 Q144.542,21.376 144.786,21.558 Q145.029,21.739 145.161,22.139 Q145.292,22.539 145.336,23.164 Q145.379,23.789 145.379,24.689 Q145.379,25.589 145.336,26.22 Q145.292,26.851 145.161,27.245 Q145.029,27.639 144.786,27.82 Q144.542,28.001 144.142,28.001 z M144.142,29.289 Q145.154,29.289 145.754,28.958 Q146.354,28.626 146.673,28.02 Q146.992,27.414 147.086,26.57 Q147.179,25.726 147.179,24.689 Q147.179,23.676 147.086,22.82 Q146.992,21.964 146.673,21.351 Q146.354,20.739 145.754,20.395 Q145.154,20.051 144.142,20.051 Q143.129,20.051 142.529,20.395 Q141.929,20.739 141.611,21.351 Q141.292,21.964 141.198,22.82 Q141.104,23.676 141.104,24.689 Q141.104,25.726 141.198,26.57 Q141.292,27.414 141.611,28.02 Q141.929,28.626 142.529,28.958 Q143.129,29.289 144.142,29.289 z" fill="#FFFFFF"/>
    <path d="M20.038,75.118 Q16.294,75.118 13.98,74.078 Q11.666,73.038 10.418,71.192 Q9.17,69.346 8.754,66.798 Q8.338,64.25 8.286,61.182 L15.566,61.182 Q15.618,66.018 16.684,67.942 Q17.75,69.866 20.142,69.866 Q21.65,69.866 22.612,69.138 Q23.574,68.41 24.146,67.006 Q24.718,65.602 24.926,63.47 Q25.134,61.338 25.186,58.53 L16.762,58.53 L16.762,52.498 L25.134,52.498 Q24.978,47.194 23.912,44.646 Q22.846,42.098 20.142,42.098 Q17.958,42.098 16.944,43.71 Q15.93,45.322 15.826,48.91 L8.546,48.91 Q8.598,45.946 9.222,43.658 Q9.846,41.37 11.224,39.836 Q12.602,38.302 14.786,37.496 Q16.97,36.69 20.142,36.69 Q24.614,36.69 27.136,38.38 Q29.658,40.07 30.88,42.826 Q32.102,45.582 32.388,49.066 Q32.674,52.55 32.674,56.138 Q32.674,59.726 32.388,63.158 Q32.102,66.59 30.854,69.242 Q29.606,71.894 27.058,73.506 Q24.51,75.118 20.038,75.118 z M37.302,74.546 L44.79,74.546 L44.79,43.554 L57.114,43.554 L57.114,37.418 L37.302,37.418 z M60.803,74.546 L68.863,74.546 L77.963,50.782 L77.963,74.546 L85.087,74.546 L85.087,37.418 L77.027,37.418 L67.927,61.234 L67.927,37.418 L60.803,37.418 z M99.954,68.41 Q100.786,66.486 101.332,64.12 Q101.878,61.754 102.19,59.258 Q102.502,56.762 102.632,54.266 Q102.762,51.77 102.762,49.586 L102.762,43.554 L109.782,43.554 L109.782,68.41 z M88.93,81.878 L95.846,81.878 L95.846,74.546 L113.682,74.546 L113.682,81.878 L120.598,81.878 L120.598,68.41 L117.114,68.41 L117.114,37.418 L95.638,37.418 L95.638,46.466 Q95.638,49.742 95.56,52.576 Q95.482,55.41 95.144,58.062 Q94.806,60.714 94.052,63.236 Q93.298,65.758 91.894,68.41 L88.93,68.41 z M135.041,60.558 L138.629,43.866 L138.733,43.866 L142.321,60.558 z M124.225,74.546 L132.025,74.546 L133.741,66.694 L143.621,66.694 L145.337,74.546 L153.137,74.546 L143.309,37.418 L134.053,37.418 z" fill="#CD485C"/>
  </g>
</svg>
