<?xml version="1.0" encoding="UTF-8"?>
<!DOCTYPE svg PUBLIC "-//W3C//DTD SVG 1.1//EN" "http://www.w3.org/Graphics/SVG/1.1/DTD/svg11.dtd">
<svg version="1.1" xmlns="http://www.w3.org/2000/svg" xmlns:xlink="http://www.w3.org/1999/xlink" x="0" y="0" width="32" height="32" viewBox="0, 0, 32, 32">
  <g id="g3396">
    <path d="M21.126,23.29 L19.137,20.775 C19.026,20.64 18.937,20.563 18.874,20.519 L18.805,20.479 L18.775,20.547 L18.322,22.571 L18.246,22.99 C18.118,23.422 17.838,23.863 17.267,23.974 L16.917,23.996 L14.617,23.996 C10.526,23.996 6.833,18.17 4.248,10.912 L4.229,10.844 C4.141,10.408 4.097,9.924 4.31,9.535 C4.556,9.085 5.025,8.941 5.517,8.926 L9.052,8.95 C9.27,8.952 9.464,9.094 9.526,9.304 C10.321,11.916 11.297,13.512 12.49,15.333 L12.523,15.391 C12.653,15.663 12.923,15.586 13.063,15.37 L13.149,15.118 L13.15,11.017 C13.15,10.415 12.875,10.329 12.209,10.235 C11.904,10.191 11.71,9.883 11.804,9.589 C12.125,8.57 13.179,8.049 14.642,8.049 L15.99,8.017 C17.081,8.017 18.069,8.485 18.069,9.88 L18.069,15.274 L18.165,15.327 C18.343,15.39 18.694,15.403 18.978,14.958 C20.203,13.23 21.615,11.165 21.814,10.087 C21.822,10.043 21.835,10.001 21.854,9.961 C22.103,9.437 22.784,9.068 23.059,8.984 C23.098,8.972 23.175,8.949 23.266,8.949 L26.947,8.952 L27.175,8.954 C27.262,8.965 27.347,8.984 27.43,9.013 C27.651,9.093 27.807,9.238 27.91,9.404 C28.111,9.732 28.083,10.1 28.103,10.247 C28.111,10.296 28.111,10.347 28.103,10.397 C27.758,12.558 25.274,14.979 24.23,16.55 C23.962,16.919 23.958,17.195 24.207,17.498 L27.672,21.836 C28.072,22.408 28.051,23.034 27.626,23.48 C27.348,23.772 26.946,23.935 26.52,23.984 L26.12,23.996 L22.438,23.996 L22.503,23.992 C22.019,24.056 21.643,23.856 21.36,23.572 L21.126,23.29 z M22.438,22.996 L26.144,22.998 C26.535,23.02 26.798,22.9 26.902,22.791 C26.938,22.754 26.987,22.694 26.939,22.564 L26.859,22.419 L23.43,18.129 C22.842,17.413 22.938,16.63 23.407,15.981 C24.4,14.486 26.534,12.35 27.036,10.587 L27.104,10.285 L27.087,10.095 L27.06,9.949 L26.958,9.949 L23.331,9.949 L23.212,10.005 C23.1,10.068 22.962,10.165 22.863,10.259 L22.763,10.383 L22.639,10.827 C22.212,12.02 21.144,13.614 20.234,14.913 L19.795,15.531 L19.518,15.873 C18.782,16.589 17.694,16.458 17.25,15.861 C17.145,15.719 17.069,15.538 17.069,15.33 L17.069,9.88 C17.069,9.234 16.775,9.017 16.002,9.017 L14.654,9.049 C14.005,9.049 13.562,9.16 13.266,9.32 L13.102,9.427 L13.218,9.468 C13.711,9.688 14.15,10.117 14.15,11.019 L14.146,15.183 C14.05,16.483 12.461,17.055 11.75,16.046 L11.654,15.881 C10.593,14.263 9.666,12.767 8.892,10.579 L8.685,9.948 L5.526,9.928 C5.201,9.936 5.182,10.024 5.188,10.015 C5.166,10.052 5.141,10.153 5.165,10.379 L5.204,10.615 L5.697,11.945 C8.28,18.632 11.549,22.996 14.617,22.996 L16.938,22.998 C17.253,23.014 17.321,22.663 17.337,22.425 L17.349,22.353 L17.81,20.288 L17.823,20.237 C17.887,20.047 17.986,19.861 18.138,19.717 C18.345,19.521 18.613,19.433 18.895,19.47 C19.29,19.522 19.635,19.804 19.917,20.147 L21.926,22.691 C22.132,22.987 22.268,23.015 22.371,23.002 L22.438,22.996 z" fill="#FFFFFF" id="path3398"/>
    <path d="M0,29.077 L0,2.923 C0,1.311 1.309,-0 2.923,-0 L29.077,-0 C30.689,-0 32,1.311 32,2.923 L32,29.077 C32,30.691 30.689,32 29.077,32 L2.923,32 C1.309,32 0,30.691 0,29.077 z M31,29.077 L31,2.923 C31,1.864 30.136,1 29.077,1 L2.923,1 C1.863,1 1,1.864 1,2.923 L1,29.077 C1,30.137 1.863,31 2.923,31 L29.077,31 C30.136,31 31,30.137 31,29.077 z" fill="#FFFFFF" id="path3400"/>
  </g>
</svg>
